<svg width="33" height="33" viewBox="0 0 33 33" fill="none" xmlns="http://www.w3.org/2000/svg">
<path d="M16.2436 10.0962C14.7531 10.9374 12.6466 10.9626 11.1376 10.1581C10.0953 9.60241 8.9154 9.28904 7.66565 9.28904C3.43204 9.28904 0 12.8846 0 17.32C0 21.7554 3.43204 25.3509 7.66565 25.3509C8.97908 25.3509 10.2154 25.0048 11.296 24.395C12.7864 23.5538 14.893 23.5286 16.4019 24.3331C17.4443 24.8888 18.6242 31 19.8739 31C24.1076 31 33 21.6066 33 17.1713C33 12.7358 24.1076 3 19.8739 3C18.5605 3 17.3242 9.48636 16.2436 10.0962Z" fill="#FC6D3E"/>
</svg>
