<svg width="40" height="40" viewBox="0 0 40 40" fill="none" xmlns="http://www.w3.org/2000/svg">
<rect width="40" height="40" rx="20" fill="#AAAAAA"/>
<path d="M13.9139 12.8962C13.9609 12.3856 14.3898 12 14.9026 12H17.0974C17.6102 12 18.0391 12.3856 18.0861 12.8962C18.2291 14.4494 18.5 17.6959 18.5 20C18.5 22.3041 18.2291 25.5506 18.0861 27.1038C18.0391 27.6144 17.6102 28 17.0974 28H14.9026C14.3898 28 13.9609 27.6144 13.9139 27.1038C13.7709 25.5506 13.5 22.3041 13.5 20C13.5 17.6959 13.7709 14.4494 13.9139 12.8962Z" fill="white"/>
<path d="M20.9139 12.8962C20.9609 12.3856 21.3898 12 21.9026 12H24.0974C24.6102 12 25.0391 12.3856 25.0861 12.8962C25.2291 14.4494 25.5 17.6959 25.5 20C25.5 22.3041 25.2291 25.5506 25.0861 27.1038C25.0391 27.6144 24.6102 28 24.0974 28H21.9026C21.3898 28 20.9609 27.6144 20.9139 27.1038C20.7709 25.5506 20.5 22.3041 20.5 20C20.5 17.6959 20.7709 14.4494 20.9139 12.8962Z" fill="white"/>
</svg>
